<mxfile host="app.diagrams.net" modified="2021-11-30T15:26:50.030Z" agent="5.0 (Windows NT 10.0; Win64; x64) AppleWebKit/537.36 (KHTML, like Gecko) Chrome/96.0.4664.45 Safari/537.36" etag="1PunRyV6X3_aYHXy0vHH" version="15.8.7" type="github">
  <diagram id="R2lEEEUBdFMjLlhIrx00" name="Page-1">
    <mxGraphModel dx="2031" dy="1089" grid="1" gridSize="10" guides="1" tooltips="1" connect="1" arrows="1" fold="1" page="1" pageScale="1" pageWidth="850" pageHeight="1100" math="0" shadow="0" extFonts="Permanent Marker^https://fonts.googleapis.com/css?family=Permanent+Marker">
      <root>
        <mxCell id="0" />
        <mxCell id="1" parent="0" />
        <mxCell id="5IZybMavsHYMu79xPOAY-1" value="User" style="swimlane;fontStyle=0;childLayout=stackLayout;horizontal=1;startSize=26;horizontalStack=0;resizeParent=1;resizeParentMax=0;resizeLast=0;collapsible=1;marginBottom=0;align=center;fontSize=14;" vertex="1" parent="1">
          <mxGeometry x="30" y="40" width="160" height="200" as="geometry" />
        </mxCell>
        <mxCell id="5IZybMavsHYMu79xPOAY-4" value="ID" style="text;strokeColor=none;fillColor=none;spacingLeft=5;spacingRight=4;overflow=hidden;rotatable=0;points=[[0,0.5],[1,0.5]];portConstraint=eastwest;fontSize=15;spacing=1;spacingBottom=-1;spacingTop=-1;fontStyle=4" vertex="1" parent="5IZybMavsHYMu79xPOAY-1">
          <mxGeometry y="26" width="160" height="30" as="geometry" />
        </mxCell>
        <mxCell id="5IZybMavsHYMu79xPOAY-14" value="name" style="text;strokeColor=none;fillColor=none;spacingLeft=5;spacingRight=4;overflow=hidden;rotatable=0;points=[[0,0.5],[1,0.5]];portConstraint=eastwest;fontSize=15;spacing=1;spacingBottom=-1;spacingTop=-1;" vertex="1" parent="5IZybMavsHYMu79xPOAY-1">
          <mxGeometry y="56" width="160" height="30" as="geometry" />
        </mxCell>
        <mxCell id="5IZybMavsHYMu79xPOAY-15" value="date of birth&#xa;  year&#xa;  month&#xa;  day" style="text;strokeColor=none;fillColor=none;spacingLeft=5;spacingRight=4;overflow=hidden;rotatable=0;points=[[0,0.5],[1,0.5]];portConstraint=eastwest;fontSize=15;spacing=1;spacingBottom=-1;spacingTop=-1;" vertex="1" parent="5IZybMavsHYMu79xPOAY-1">
          <mxGeometry y="86" width="160" height="84" as="geometry" />
        </mxCell>
        <mxCell id="5IZybMavsHYMu79xPOAY-16" value="email" style="text;strokeColor=none;fillColor=none;spacingLeft=5;spacingRight=4;overflow=hidden;rotatable=0;points=[[0,0.5],[1,0.5]];portConstraint=eastwest;fontSize=15;spacing=1;spacingBottom=-1;spacingTop=-1;" vertex="1" parent="5IZybMavsHYMu79xPOAY-1">
          <mxGeometry y="170" width="160" height="30" as="geometry" />
        </mxCell>
        <mxCell id="5IZybMavsHYMu79xPOAY-19" value="Server" style="swimlane;fontStyle=0;childLayout=stackLayout;horizontal=1;startSize=26;horizontalStack=0;resizeParent=1;resizeParentMax=0;resizeLast=0;collapsible=1;marginBottom=0;align=center;fontSize=14;" vertex="1" parent="1">
          <mxGeometry x="230" y="40" width="160" height="116" as="geometry" />
        </mxCell>
        <mxCell id="5IZybMavsHYMu79xPOAY-20" value="name" style="text;strokeColor=none;fillColor=none;spacingLeft=5;spacingRight=4;overflow=hidden;rotatable=0;points=[[0,0.5],[1,0.5]];portConstraint=eastwest;fontSize=15;spacing=1;spacingBottom=-1;spacingTop=-1;fontStyle=4" vertex="1" parent="5IZybMavsHYMu79xPOAY-19">
          <mxGeometry y="26" width="160" height="30" as="geometry" />
        </mxCell>
        <mxCell id="5IZybMavsHYMu79xPOAY-21" value="users_number" style="text;strokeColor=none;fillColor=none;spacingLeft=5;spacingRight=4;overflow=hidden;rotatable=0;points=[[0,0.5],[1,0.5]];portConstraint=eastwest;fontSize=15;spacing=1;spacingBottom=-1;spacingTop=-1;" vertex="1" parent="5IZybMavsHYMu79xPOAY-19">
          <mxGeometry y="56" width="160" height="30" as="geometry" />
        </mxCell>
        <mxCell id="5IZybMavsHYMu79xPOAY-22" value="is_opened" style="text;strokeColor=none;fillColor=none;spacingLeft=5;spacingRight=4;overflow=hidden;rotatable=0;points=[[0,0.5],[1,0.5]];portConstraint=eastwest;fontSize=15;spacing=1;spacingBottom=-1;spacingTop=-1;" vertex="1" parent="5IZybMavsHYMu79xPOAY-19">
          <mxGeometry y="86" width="160" height="30" as="geometry" />
        </mxCell>
        <mxCell id="5IZybMavsHYMu79xPOAY-24" value="Character" style="swimlane;fontStyle=0;childLayout=stackLayout;horizontal=1;startSize=26;horizontalStack=0;resizeParent=1;resizeParentMax=0;resizeLast=0;collapsible=1;marginBottom=0;align=center;fontSize=14;" vertex="1" parent="1">
          <mxGeometry x="425" y="40" width="160" height="296" as="geometry" />
        </mxCell>
        <mxCell id="5IZybMavsHYMu79xPOAY-25" value="ID" style="text;strokeColor=none;fillColor=none;spacingLeft=5;spacingRight=4;overflow=hidden;rotatable=0;points=[[0,0.5],[1,0.5]];portConstraint=eastwest;fontSize=15;spacing=1;spacingBottom=-1;spacingTop=-1;fontStyle=4" vertex="1" parent="5IZybMavsHYMu79xPOAY-24">
          <mxGeometry y="26" width="160" height="30" as="geometry" />
        </mxCell>
        <mxCell id="5IZybMavsHYMu79xPOAY-26" value="nickname" style="text;strokeColor=none;fillColor=none;spacingLeft=5;spacingRight=4;overflow=hidden;rotatable=0;points=[[0,0.5],[1,0.5]];portConstraint=eastwest;fontSize=15;spacing=1;spacingBottom=-1;spacingTop=-1;" vertex="1" parent="5IZybMavsHYMu79xPOAY-24">
          <mxGeometry y="56" width="160" height="30" as="geometry" />
        </mxCell>
        <mxCell id="5IZybMavsHYMu79xPOAY-27" value="gender" style="text;strokeColor=none;fillColor=none;spacingLeft=5;spacingRight=4;overflow=hidden;rotatable=0;points=[[0,0.5],[1,0.5]];portConstraint=eastwest;fontSize=15;spacing=1;spacingBottom=-1;spacingTop=-1;" vertex="1" parent="5IZybMavsHYMu79xPOAY-24">
          <mxGeometry y="86" width="160" height="30" as="geometry" />
        </mxCell>
        <mxCell id="5IZybMavsHYMu79xPOAY-28" value="level" style="text;strokeColor=none;fillColor=none;spacingLeft=5;spacingRight=4;overflow=hidden;rotatable=0;points=[[0,0.5],[1,0.5]];portConstraint=eastwest;fontSize=15;spacing=1;spacingBottom=-1;spacingTop=-1;" vertex="1" parent="5IZybMavsHYMu79xPOAY-24">
          <mxGeometry y="116" width="160" height="30" as="geometry" />
        </mxCell>
        <mxCell id="5IZybMavsHYMu79xPOAY-39" value="EXP (experience)" style="text;strokeColor=none;fillColor=none;spacingLeft=5;spacingRight=4;overflow=hidden;rotatable=0;points=[[0,0.5],[1,0.5]];portConstraint=eastwest;fontSize=15;spacing=1;spacingBottom=-1;spacingTop=-1;" vertex="1" parent="5IZybMavsHYMu79xPOAY-24">
          <mxGeometry y="146" width="160" height="30" as="geometry" />
        </mxCell>
        <mxCell id="5IZybMavsHYMu79xPOAY-29" value="CP (combat_power)" style="text;strokeColor=none;fillColor=none;spacingLeft=5;spacingRight=4;overflow=hidden;rotatable=0;points=[[0,0.5],[1,0.5]];portConstraint=eastwest;fontSize=15;spacing=1;spacingBottom=-1;spacingTop=-1;" vertex="1" parent="5IZybMavsHYMu79xPOAY-24">
          <mxGeometry y="176" width="160" height="30" as="geometry" />
        </mxCell>
        <mxCell id="5IZybMavsHYMu79xPOAY-30" value="title" style="text;strokeColor=none;fillColor=none;spacingLeft=5;spacingRight=4;overflow=hidden;rotatable=0;points=[[0,0.5],[1,0.5]];portConstraint=eastwest;fontSize=15;spacing=1;spacingBottom=-1;spacingTop=-1;" vertex="1" parent="5IZybMavsHYMu79xPOAY-24">
          <mxGeometry y="206" width="160" height="30" as="geometry" />
        </mxCell>
        <mxCell id="5IZybMavsHYMu79xPOAY-41" value="HP()" style="text;strokeColor=none;fillColor=none;spacingLeft=5;spacingRight=4;overflow=hidden;rotatable=0;points=[[0,0.5],[1,0.5]];portConstraint=eastwest;fontSize=15;spacing=1;spacingBottom=-1;spacingTop=-1;" vertex="1" parent="5IZybMavsHYMu79xPOAY-24">
          <mxGeometry y="236" width="160" height="30" as="geometry" />
        </mxCell>
        <mxCell id="5IZybMavsHYMu79xPOAY-42" value="MP()" style="text;strokeColor=none;fillColor=none;spacingLeft=5;spacingRight=4;overflow=hidden;rotatable=0;points=[[0,0.5],[1,0.5]];portConstraint=eastwest;fontSize=15;spacing=1;spacingBottom=-1;spacingTop=-1;" vertex="1" parent="5IZybMavsHYMu79xPOAY-24">
          <mxGeometry y="266" width="160" height="30" as="geometry" />
        </mxCell>
        <mxCell id="5IZybMavsHYMu79xPOAY-31" value="Class" style="swimlane;fontStyle=0;childLayout=stackLayout;horizontal=1;startSize=26;horizontalStack=0;resizeParent=1;resizeParentMax=0;resizeLast=0;collapsible=1;marginBottom=0;align=center;fontSize=14;" vertex="1" parent="1">
          <mxGeometry x="620" y="40" width="180" height="280" as="geometry" />
        </mxCell>
        <mxCell id="5IZybMavsHYMu79xPOAY-32" value="name" style="text;strokeColor=none;fillColor=none;spacingLeft=5;spacingRight=4;overflow=hidden;rotatable=0;points=[[0,0.5],[1,0.5]];portConstraint=eastwest;fontSize=15;spacing=1;spacingBottom=-1;spacingTop=-1;fontStyle=4" vertex="1" parent="5IZybMavsHYMu79xPOAY-31">
          <mxGeometry y="26" width="180" height="30" as="geometry" />
        </mxCell>
        <mxCell id="5IZybMavsHYMu79xPOAY-81" value="stat&#xa;{ physical_ATK (attack)&#xa;  magical_ATK&#xa;  physical_DEF (defense)&#xa;  magical_DEF&#xa;  critical_rate&#xa;  critical_damage&#xa;  attack_speed&#xa;  move_speed&#xa;  HP&#xa;  MP&#xa;}" style="text;strokeColor=none;fillColor=none;spacingLeft=5;spacingRight=4;overflow=hidden;rotatable=0;points=[[0,0.5],[1,0.5]];portConstraint=eastwest;fontSize=15;spacing=1;spacingBottom=-1;spacingTop=-1;fontStyle=0" vertex="1" parent="5IZybMavsHYMu79xPOAY-31">
          <mxGeometry y="56" width="180" height="224" as="geometry" />
        </mxCell>
        <mxCell id="5IZybMavsHYMu79xPOAY-48" value="Skill" style="swimlane;fontStyle=0;childLayout=stackLayout;horizontal=1;startSize=26;horizontalStack=0;resizeParent=1;resizeParentMax=0;resizeLast=0;collapsible=1;marginBottom=0;align=center;fontSize=14;" vertex="1" parent="1">
          <mxGeometry x="830" y="40" width="160" height="340" as="geometry" />
        </mxCell>
        <mxCell id="5IZybMavsHYMu79xPOAY-49" value="name" style="text;strokeColor=none;fillColor=none;spacingLeft=5;spacingRight=4;overflow=hidden;rotatable=0;points=[[0,0.5],[1,0.5]];portConstraint=eastwest;fontSize=15;spacing=1;spacingBottom=-1;spacingTop=-1;fontStyle=4" vertex="1" parent="5IZybMavsHYMu79xPOAY-48">
          <mxGeometry y="26" width="160" height="30" as="geometry" />
        </mxCell>
        <mxCell id="5IZybMavsHYMu79xPOAY-50" value="class" style="text;strokeColor=none;fillColor=none;spacingLeft=5;spacingRight=4;overflow=hidden;rotatable=0;points=[[0,0.5],[1,0.5]];portConstraint=eastwest;fontSize=15;spacing=1;spacingBottom=-1;spacingTop=-1;" vertex="1" parent="5IZybMavsHYMu79xPOAY-48">
          <mxGeometry y="56" width="160" height="30" as="geometry" />
        </mxCell>
        <mxCell id="5IZybMavsHYMu79xPOAY-51" value="MP" style="text;strokeColor=none;fillColor=none;spacingLeft=5;spacingRight=4;overflow=hidden;rotatable=0;points=[[0,0.5],[1,0.5]];portConstraint=eastwest;fontSize=15;spacing=1;spacingBottom=-1;spacingTop=-1;" vertex="1" parent="5IZybMavsHYMu79xPOAY-48">
          <mxGeometry y="86" width="160" height="30" as="geometry" />
        </mxCell>
        <mxCell id="5IZybMavsHYMu79xPOAY-52" value="cooltime" style="text;strokeColor=none;fillColor=none;spacingLeft=5;spacingRight=4;overflow=hidden;rotatable=0;points=[[0,0.5],[1,0.5]];portConstraint=eastwest;fontSize=15;spacing=1;spacingBottom=-1;spacingTop=-1;" vertex="1" parent="5IZybMavsHYMu79xPOAY-48">
          <mxGeometry y="116" width="160" height="30" as="geometry" />
        </mxCell>
        <mxCell id="5IZybMavsHYMu79xPOAY-53" value="type" style="text;strokeColor=none;fillColor=none;spacingLeft=5;spacingRight=4;overflow=hidden;rotatable=0;points=[[0,0.5],[1,0.5]];portConstraint=eastwest;fontSize=15;spacing=1;spacingBottom=-1;spacingTop=-1;" vertex="1" parent="5IZybMavsHYMu79xPOAY-48">
          <mxGeometry y="146" width="160" height="30" as="geometry" />
        </mxCell>
        <mxCell id="5IZybMavsHYMu79xPOAY-54" value="elemental_attribute" style="text;strokeColor=none;fillColor=none;spacingLeft=5;spacingRight=4;overflow=hidden;rotatable=0;points=[[0,0.5],[1,0.5]];portConstraint=eastwest;fontSize=15;spacing=1;spacingBottom=-1;spacingTop=-1;" vertex="1" parent="5IZybMavsHYMu79xPOAY-48">
          <mxGeometry y="176" width="160" height="30" as="geometry" />
        </mxCell>
        <mxCell id="5IZybMavsHYMu79xPOAY-82" value="stat{&#xa; ATK&#xa; atk_buff (amount)&#xa; def_buff&#xa; critical_rate_buff&#xa; critical_dmg_buff&#xa;}" style="text;strokeColor=none;fillColor=none;spacingLeft=5;spacingRight=4;overflow=hidden;rotatable=0;points=[[0,0.5],[1,0.5]];portConstraint=eastwest;fontSize=15;spacing=1;spacingBottom=-1;spacingTop=-1;" vertex="1" parent="5IZybMavsHYMu79xPOAY-48">
          <mxGeometry y="206" width="160" height="134" as="geometry" />
        </mxCell>
        <mxCell id="5IZybMavsHYMu79xPOAY-60" value="Skill_Level" style="swimlane;fontStyle=0;childLayout=stackLayout;horizontal=1;startSize=26;horizontalStack=0;resizeParent=1;resizeParentMax=0;resizeLast=0;collapsible=1;marginBottom=0;align=center;fontSize=14;" vertex="1" parent="1">
          <mxGeometry x="1020" y="40" width="200" height="220" as="geometry" />
        </mxCell>
        <mxCell id="5IZybMavsHYMu79xPOAY-61" value="name" style="text;strokeColor=none;fillColor=none;spacingLeft=5;spacingRight=4;overflow=hidden;rotatable=0;points=[[0,0.5],[1,0.5]];portConstraint=eastwest;fontSize=15;spacing=1;spacingBottom=-1;spacingTop=-1;fontStyle=0;horizontal=1;" vertex="1" parent="5IZybMavsHYMu79xPOAY-60">
          <mxGeometry y="26" width="200" height="30" as="geometry" />
        </mxCell>
        <mxCell id="5IZybMavsHYMu79xPOAY-84" value="" style="endArrow=none;dashed=1;html=1;rounded=0;fontSize=15;" edge="1" parent="5IZybMavsHYMu79xPOAY-60">
          <mxGeometry width="50" height="50" relative="1" as="geometry">
            <mxPoint x="6" y="47" as="sourcePoint" />
            <mxPoint x="46" y="47" as="targetPoint" />
          </mxGeometry>
        </mxCell>
        <mxCell id="5IZybMavsHYMu79xPOAY-62" value="max_level" style="text;strokeColor=none;fillColor=none;spacingLeft=5;spacingRight=4;overflow=hidden;rotatable=0;points=[[0,0.5],[1,0.5]];portConstraint=eastwest;fontSize=15;spacing=1;spacingBottom=-1;spacingTop=-1;" vertex="1" parent="5IZybMavsHYMu79xPOAY-60">
          <mxGeometry y="56" width="200" height="30" as="geometry" />
        </mxCell>
        <mxCell id="5IZybMavsHYMu79xPOAY-80" value="stat increment&#xa;{ ATK&#xa;  atk_buff&#xa;  def_buff&#xa;  critical_dmg_buff&#xa;  critical_rate_buff&#xa;}" style="text;strokeColor=none;fillColor=none;spacingLeft=5;spacingRight=4;overflow=hidden;rotatable=0;points=[[0,0.5],[1,0.5]];portConstraint=eastwest;fontSize=15;spacing=1;spacingBottom=-1;spacingTop=-1;" vertex="1" parent="5IZybMavsHYMu79xPOAY-60">
          <mxGeometry y="86" width="200" height="134" as="geometry" />
        </mxCell>
        <mxCell id="5IZybMavsHYMu79xPOAY-72" value="Armor" style="swimlane;fontStyle=0;childLayout=stackLayout;horizontal=1;startSize=26;horizontalStack=0;resizeParent=1;resizeParentMax=0;resizeLast=0;collapsible=1;marginBottom=0;align=center;fontSize=14;" vertex="1" parent="1">
          <mxGeometry x="1250" y="40" width="160" height="400" as="geometry" />
        </mxCell>
        <mxCell id="5IZybMavsHYMu79xPOAY-73" value="ID" style="text;strokeColor=none;fillColor=none;spacingLeft=5;spacingRight=4;overflow=hidden;rotatable=0;points=[[0,0.5],[1,0.5]];portConstraint=eastwest;fontSize=15;spacing=1;spacingBottom=-1;spacingTop=-1;fontStyle=4" vertex="1" parent="5IZybMavsHYMu79xPOAY-72">
          <mxGeometry y="26" width="160" height="30" as="geometry" />
        </mxCell>
        <mxCell id="5IZybMavsHYMu79xPOAY-74" value="name" style="text;strokeColor=none;fillColor=none;spacingLeft=5;spacingRight=4;overflow=hidden;rotatable=0;points=[[0,0.5],[1,0.5]];portConstraint=eastwest;fontSize=15;spacing=1;spacingBottom=-1;spacingTop=-1;" vertex="1" parent="5IZybMavsHYMu79xPOAY-72">
          <mxGeometry y="56" width="160" height="30" as="geometry" />
        </mxCell>
        <mxCell id="5IZybMavsHYMu79xPOAY-75" value="part" style="text;strokeColor=none;fillColor=none;spacingLeft=5;spacingRight=4;overflow=hidden;rotatable=0;points=[[0,0.5],[1,0.5]];portConstraint=eastwest;fontSize=15;spacing=1;spacingBottom=-1;spacingTop=-1;" vertex="1" parent="5IZybMavsHYMu79xPOAY-72">
          <mxGeometry y="86" width="160" height="30" as="geometry" />
        </mxCell>
        <mxCell id="5IZybMavsHYMu79xPOAY-76" value="class" style="text;strokeColor=none;fillColor=none;spacingLeft=5;spacingRight=4;overflow=hidden;rotatable=0;points=[[0,0.5],[1,0.5]];portConstraint=eastwest;fontSize=15;spacing=1;spacingBottom=-1;spacingTop=-1;" vertex="1" parent="5IZybMavsHYMu79xPOAY-72">
          <mxGeometry y="116" width="160" height="30" as="geometry" />
        </mxCell>
        <mxCell id="5IZybMavsHYMu79xPOAY-77" value="level" style="text;strokeColor=none;fillColor=none;spacingLeft=5;spacingRight=4;overflow=hidden;rotatable=0;points=[[0,0.5],[1,0.5]];portConstraint=eastwest;fontSize=15;spacing=1;spacingBottom=-1;spacingTop=-1;" vertex="1" parent="5IZybMavsHYMu79xPOAY-72">
          <mxGeometry y="146" width="160" height="30" as="geometry" />
        </mxCell>
        <mxCell id="5IZybMavsHYMu79xPOAY-78" value="stat increment&#xa;{ physical_ATK&#xa;  magical_ATK&#xa;  physical_DEF&#xa;  magical_DEF&#xa;  critical_rate&#xa;  critical_damage&#xa;  attack_speed&#xa;  move_speed&#xa;  HP&#xa;  MP&#xa;}" style="text;strokeColor=none;fillColor=none;spacingLeft=5;spacingRight=4;overflow=hidden;rotatable=0;points=[[0,0.5],[1,0.5]];portConstraint=eastwest;fontSize=15;spacing=1;spacingBottom=-1;spacingTop=-1;" vertex="1" parent="5IZybMavsHYMu79xPOAY-72">
          <mxGeometry y="176" width="160" height="224" as="geometry" />
        </mxCell>
      </root>
    </mxGraphModel>
  </diagram>
</mxfile>
